<svg xmlns="http://www.w3.org/2000/svg" xmlns:xlink="http://www.w3.org/1999/xlink" version="1.2" baseProfile="tiny" x="0px" y="0px" viewBox="0 0 100 100" xml:space="preserve"><path d="M92.7,25.2c-2.9,0-5.2,2.4-5.2,5.2c0,1.9,1,3.5,2.5,4.5l-3.3,10.4c-0.6-0.2-1.2-0.3-1.7-0.4l-2.1-8c1.6-0.9,2.7-2.6,2.7-4.6  c0-2.9-2.4-5.2-5.2-5.2s-5.2,2.4-5.2,5.2s2.4,5.2,5.2,5.2h0.1l2,7.5c-3.3,0.8-6,3.9-8.5,6.7c-2.7,3-5.5,6.2-8.8,6.7  c-0.8-9-3.8-16.1-9-21.2c-8.4-8.2-19.3-8.1-19.7-8.1c-13,0-23.6,10.6-23.6,23.6c0,4.6,1.9,8.9,4.9,11.9C9.6,67,4.4,69.8,2.3,72.8  C2,73.2,2,73.7,2.2,74.1s0.6,0.7,1.1,0.7h83.8c0.6,0,1.1-0.5,1.2-1.1s-0.3-1.2-0.9-1.4c-2.1-0.6-5.4-2.1-6.1-3.5  c-0.1-0.3-0.1-0.5,0-0.7c0.3-0.7,1.5-2.2,2.8-3.7c3.4-4,8-9.6,7.4-14c-0.2-1.6-1.1-3-2.6-4c0,0,0,0-0.1,0l3.5-10.8  c0.1,0,0.2,0,0.4,0c2.9,0,5.2-2.4,5.2-5.2S95.6,25.2,92.7,25.2z M77.6,32.3c0-1.5,1.2-2.8,2.8-2.8s2.8,1.2,2.8,2.8S81.9,35,80.4,35  S77.6,33.8,77.6,32.3z M36.4,31.7L36.4,31.7c0.9,0,10.6,0.2,17.9,7.4c5.4,5.3,8.2,13.1,8.5,23.1H43.6c1.8-2.7,2.9-5.9,2.9-9.4  c0-5.6-4.6-10.2-10.2-10.2s-10.2,4.6-10.2,10.2c0,0.7,0.6,1.2,1.2,1.2s1.2-0.6,1.2-1.2c0-4.2,3.4-7.7,7.7-7.7s7.7,3.4,7.7,7.7  c0,7.9-6.4,14.4-14.4,14.4c-7.9,0-14.4-6.4-14.4-14.4C15.3,41.1,24.7,31.7,36.4,31.7z M89.1,50.8c0.5,3.4-3.9,8.6-6.8,12.1  c-1.5,1.8-2.7,3.2-3.1,4.2c-0.4,0.9-0.5,1.9,0,2.8c0.4,0.9,1.3,1.8,2.3,2.5H6.3c2.7-2,7.4-4,13.7-5.7c2.7,1.9,6,3,9.6,3  c4.7,0,8.9-1.9,11.9-5H64c0.7,0,1.2-0.6,1.2-1.2c0-0.8,0-1.7-0.1-2.5c4.3-0.6,7.6-4.3,10.6-7.6c4.4-5,7.3-7.8,11.8-4.8  C88.5,49.1,89,49.9,89.1,50.8z M92.7,33.2c-1.5,0-2.8-1.2-2.8-2.8s1.2-2.8,2.8-2.8s2.8,1.2,2.8,2.8S94.2,33.2,92.7,33.2z"></path></svg>